HIERARCHY
ROOT Hips
{
	OFFSET -3.958830 18.904000 13.208200
	CHANNELS 6 Xposition Yposition Zposition Zrotation Yrotation Xrotation 
	JOINT LHipJoint
	{
		OFFSET 0.000000 0.000000 0.000000
		CHANNELS 3 Zrotation Yrotation Xrotation
		JOINT LeftUpLeg
		{
			OFFSET 1.800000 -1.400000 0.085000
			CHANNELS 3 Zrotation Yrotation Xrotation
			JOINT LeftLeg
			{
				OFFSET 2.215000 -6.000000 0.000000
				CHANNELS 3 Zrotation Yrotation Xrotation
				JOINT LeftFoot
				{
					OFFSET 2.500000 -6.900000 0.000000
					CHANNELS 3 Zrotation Yrotation Xrotation
					JOINT LeftToeBase
					{
						OFFSET 0.200000 -0.500000 1.950000
						CHANNELS 3 Zrotation Yrotation Xrotation
						End Site
						{
							OFFSET 0.000000 0.000000 0.000000
						}
					}
				}
			}
		}
	}
	JOINT RHipJoint
	{
		OFFSET 0.000000 0.000000 0.000000
		CHANNELS 3 Zrotation Yrotation Xrotation
		JOINT RightUpLeg
		{
			OFFSET -1.800000 -1.400000 0.085000
			CHANNELS 3 Zrotation Yrotation Xrotation
			JOINT RightLeg
			{
				OFFSET -2.215000 -6.000000 0.000000
				CHANNELS 3 Zrotation Yrotation Xrotation
				JOINT RightFoot
				{
					OFFSET -2.500000 -6.900000 0.000000
					CHANNELS 3 Zrotation Yrotation Xrotation
					JOINT RightToeBase
					{
						OFFSET -0.200000 -0.500000 1.950000
						CHANNELS 3 Zrotation Yrotation Xrotation
						End Site
						{
							OFFSET 0.000000 0.000000 0.000000
						}
					}
				}
			}
		}
	}
	JOINT LowerBack
	{
		OFFSET 0.000000 0.000000 0.000000
		CHANNELS 3 Zrotation Yrotation Xrotation
		JOINT Spine
		{
			OFFSET -0.087000 1.940000 -0.288900
			CHANNELS 3 Zrotation Yrotation Xrotation
			JOINT Spine1
			{
				OFFSET 0.000000 1.950000 0.060000
				CHANNELS 3 Zrotation Yrotation Xrotation
				JOINT Neck
				{
					OFFSET 0.000000 0.000000 0.000000
					CHANNELS 3 Zrotation Yrotation Xrotation
					JOINT Neck1
					{
						OFFSET 0.000000 1.600000 0.340000
						CHANNELS 3 Zrotation Yrotation Xrotation
						JOINT Head
						{
							OFFSET 0.000000 1.667000 -0.240000
							CHANNELS 3 Zrotation Yrotation Xrotation
							End Site
							{
								OFFSET 0.000000 0.000000 0.000000
							}
						}
					}
				}
				JOINT LeftShoulder
				{
					OFFSET 0.000000 0.000000 0.000000
					CHANNELS 3 Zrotation Yrotation Xrotation
					JOINT LeftArm
					{
						OFFSET 2.700000 1.550000 -0.730000
						CHANNELS 3 Zrotation Yrotation Xrotation
						JOINT LeftForeArm
						{
							OFFSET 5.450000 0.000000 0.000000
							CHANNELS 3 Zrotation Yrotation Xrotation
							JOINT LeftHand
							{
								OFFSET 3.450000 0.000000 0.000000
								CHANNELS 3 Zrotation Yrotation Xrotation
								JOINT LeftHandIndex1
								{
									OFFSET 0.750000 0.000000 0.000000
									CHANNELS 3 Zrotation Yrotation Xrotation
									End Site
									{
										OFFSET 0.000000 0.000000 0.000000
									}
								}
							}
						}
					}
				}
				JOINT RightShoulder
				{
					OFFSET 0.000000 0.000000 0.000000
					CHANNELS 3 Zrotation Yrotation Xrotation
					JOINT RightArm
					{
						OFFSET -2.700000 1.550000 -0.730000
						CHANNELS 3 Zrotation Yrotation Xrotation
						JOINT RightForeArm
						{
							OFFSET -5.450000 0.000000 0.000000
							CHANNELS 3 Zrotation Yrotation Xrotation
							JOINT RightHand
							{
								OFFSET -3.450000 0.000000 0.000000
								CHANNELS 3 Zrotation Yrotation Xrotation
								JOINT RightHandIndex1
								{
									OFFSET -0.750000 0.000000 0.000000
									CHANNELS 3 Zrotation Yrotation Xrotation
									End Site
									{
										OFFSET 0.000000 0.000000 0.000000
									}
								}
							}
						}
					}
				}
			}
		}
	}
}
MOTION
Frames: 7
Frame Time: 0.016667
-1.652120 17.104930 -0.144470 -2.960294 7.287107 -5.210544 -14.733754 12.421917 3.205417 5.226573 -2.641657 -27.814236 -4.248205 4.472124 14.575742 -1.190489 3.429345 3.490212 0.585810 0.129330 0.317360 18.690438 -11.637011 3.010285 3.846909 -1.227758 0.678484 1.998415 -6.126983 23.178501 -0.678805 -5.159738 2.789281 0.278670 0.526990 0.208650 -4.913202 0.415663 -7.751623 15.270541 -0.383495 24.116487 -10.840445 5.071004 18.522192 1.999608 -3.807377 -9.895388 -9.345859 0.434960 38.704689 6.027960 -6.194990 -14.234240 -10.957268 -28.992549 2.195628 -4.059523 -29.389664 -6.667751 42.333960 -57.828403 -22.758788 -3.606716 2.404150 0.678180 0.174970 -0.191990 0.308510 6.572990 32.016339 7.840669 3.864644 23.062120 -11.486555 -33.712526 49.683380 -14.522122 1.456048 -1.315803 -0.401250 0.527380 0.095550 -0.225750 
-1.670700 17.144080 -0.141530 -3.372671 8.456512 -5.639857 -14.751390 12.455104 3.238724 5.360619 -2.851738 -28.374463 -4.233552 4.837832 17.159423 -1.111249 3.625635 3.404089 0.589230 0.152610 0.333870 18.669945 -11.591036 3.028914 4.171494 -1.080139 0.310001 2.875183 -6.530893 24.409145 -0.716958 -5.234507 2.767544 0.266630 0.484940 0.181990 -4.888955 0.315700 -7.797396 15.391247 -1.089681 25.479838 -11.039676 4.582355 17.831601 2.078846 -3.730142 -9.981984 -9.315831 0.334586 38.836555 6.304010 -5.990050 -15.019530 -11.578869 -28.934438 2.305909 -4.579805 -28.368451 -7.100330 43.560084 -62.479531 -25.419574 -3.528444 2.331247 0.683800 0.137390 -0.159390 0.307900 7.012768 31.733773 7.981811 4.890542 21.589680 -12.197646 -32.832576 54.657308 -15.544231 1.426626 -1.256206 -0.384060 0.523920 0.063420 -0.221370 
-1.700630 17.214160 -0.132740 -3.781303 10.678851 -6.166912 -14.806004 12.516301 3.351562 5.126340 -3.507250 -29.238979 -3.961087 5.435181 22.009492 -0.989868 4.120818 3.195499 0.558040 0.124500 0.331420 18.613172 -11.481551 3.027537 4.643909 -0.615706 -0.923811 3.927581 -7.231527 27.193812 -0.771806 -5.397230 2.706228 0.213750 0.439080 0.166610 -4.792769 0.059842 -7.891966 14.952502 -2.017554 27.867315 -11.229713 3.926924 16.177814 2.063418 -3.292029 -10.112006 -8.903481 0.140300 39.578682 7.569570 -5.827690 -16.289630 -12.731589 -28.644756 2.348408 -6.515855 -27.298879 -7.324923 45.800629 -71.319618 -31.427747 -3.422550 2.167985 0.723190 0.086700 -0.118490 0.288250 8.107232 30.782100 8.344272 7.751242 18.738530 -13.298342 -29.720416 63.334878 -16.903778 1.381676 -1.159906 -0.371830 0.504850 0.057500 -0.225340 
-1.714360 17.300540 -0.119280 -4.511817 12.190062 -7.228034 -14.835558 12.614072 3.391640 5.506277 -3.939669 -28.912831 -3.612375 6.117012 27.031932 -0.856473 4.819567 2.905303 0.509440 0.043580 0.365450 18.570886 -11.394422 3.049163 5.007260 0.204201 -2.466857 4.996786 -8.234138 31.211342 -0.876881 -5.705751 2.584611 0.122720 0.355590 0.158080 -4.738422 -0.143077 -7.990440 15.385749 -3.080621 31.019208 -11.738099 3.500747 14.463370 2.305937 -3.115344 -10.718939 -9.467660 -0.328667 41.821065 8.509530 -5.934250 -18.951930 -13.689559 -28.226977 2.536209 -9.944236 -26.197447 -7.635860 51.010178 -79.805657 -41.368494 -3.302939 1.805206 0.821650 0.004330 -0.050140 0.230620 8.518967 29.934723 9.214791 11.042199 14.881579 -14.450520 -19.854013 71.402226 -14.411968 1.414753 -1.188601 -0.370010 0.481520 0.070460 -0.262960 
-1.756230 17.370350 -0.100920 -4.262771 13.238558 -7.736257 -14.881357 12.662706 3.421054 5.617388 -4.335143 -28.092552 -3.748321 6.983968 31.366634 -0.734619 5.583198 2.603113 0.493960 0.007730 0.395780 18.520139 -11.305210 3.049679 4.742864 1.519608 -4.909103 5.929628 -9.411869 36.355567 -1.010613 -6.239610 2.385058 0.082600 0.307820 0.163540 -4.631450 -0.272425 -8.073435 14.027459 -2.968166 33.237563 -11.727374 3.729723 13.682066 2.244910 -2.113319 -11.108940 -8.165664 -0.684029 43.932055 9.405230 -5.324070 -20.455550 -13.926367 -27.587241 2.260639 -13.323339 -25.704243 -7.720358 59.169398 -88.284493 -56.659790 -3.276667 1.153106 0.892810 -0.036680 -0.004090 0.198680 8.863591 28.475585 10.306404 16.557495 12.258174 -14.754296 -4.593001 76.577075 -7.063582 1.468693 -1.356910 -0.374930 0.466250 0.077220 -0.295630 
-1.796910 17.403260 -0.080470 -4.338790 14.604829 -7.891174 -14.930794 12.677375 3.371085 5.610794 -4.565857 -27.541543 -2.640623 7.361350 35.184971 -0.613070 6.146805 2.382796 0.513890 0.043840 0.422760 18.485452 -11.131057 3.139506 4.285226 3.224634 -8.122936 8.181670 -11.630192 42.560842 -1.245342 -7.177078 2.066653 0.083080 0.263350 0.159650 -4.544461 -0.428895 -8.176312 13.133474 -3.210625 34.443893 -11.668068 3.522940 13.905891 2.338271 -1.621756 -11.811605 -7.575086 -0.845994 45.192726 9.383030 -4.646380 -21.406150 -13.722401 -26.228920 3.392692 -17.195328 -24.939223 -5.874365 -161.974217 -84.295809 154.153001 -3.372765 2.696438 0.917250 -0.065450 0.038750 0.192940 8.584821 26.920521 10.784777 23.082899 11.143347 -14.661609 14.864799 78.422570 5.226755 1.531983 -1.525676 -0.355970 0.459130 0.055010 -0.302800 
-1.838510 17.403450 -0.063310 -4.683907 15.923231 -8.184853 -14.940356 12.638531 3.214939 5.898108 -4.539920 -26.620077 -1.273938 7.431970 37.913751 -0.566951 6.564779 2.231830 0.511250 0.029260 0.447810 18.498066 -10.947831 3.339372 3.615183 5.035241 -11.198719 11.071382 -14.763081 48.841273 -1.571421 -8.413009 1.675779 0.071050 0.245600 0.150150 -4.575439 -0.429204 -8.282747 13.150620 -3.651968 35.784094 -12.124866 3.316069 13.522648 2.513155 -1.157721 -12.251364 -6.941171 -1.152498 46.750533 9.614540 -4.205990 -22.595530 -14.132067 -25.280500 3.671791 -21.992834 -23.489089 -6.195500 -144.296994 -78.031702 127.987429 -3.416136 2.379147 0.983940 -0.090960 0.071020 0.181530 8.714969 25.556204 11.501268 30.312989 9.457980 -14.799525 31.627497 78.143389 15.792564 1.621251 -1.541333 -0.381110 0.487700 0.059400 -0.328430 
